<?xml version="1.0" encoding="utf-8"?>
<!-- Generator: Adobe Illustrator 22.0.1, SVG Export Plug-In . SVG Version: 6.00 Build 0)  -->
<svg class="blue" version="1.1" xmlns="http://www.w3.org/2000/svg" xmlns:xlink="http://www.w3.org/1999/xlink" x="0px" y="0px"
	 viewBox="0 0 841.9 1190.6" style="enable-background:new 0 0 841.9 1190.6;" xml:space="preserve">
<style type="text/css">
	.st0{fill:#847C7C;}
	.st1{fill:#020304;}
	.st2{fill:#61C1C7;}
	.st3{fill:#E5201E;}
	.st4{fill:#58225E;}
	.st5{fill:none;}
	.st6{fill:#DB7531;}
	.st7{fill:#364496;}
</style>
<g id="Gray_x2F_Black">
</g>
<g id="Blue">
	<path class="st2" d="M618.9,406.4c0,0,19,8.4,33.3,35.5c0,0,7.9-7,11.4-6.2c0,0-3.5-52.3-6-59c-2.4-6.8-5.7-48.7-5.4-60.9
		s4.3-53.1-1.6-72.6s-6.5-36.3-35.2-69.9s-39.5-45.5-99.7-75c-24.6-9.7-60.7-19.8-65.3-19.8c-4.6,0-20.9,0-20.9,0l3.2-3.5l-15.7,2.7
		l3.8-4.6l-18.4,3.2l4.6-4.6c0,0-26.5,2.4-33.6,4.6c-7,2.2-74.2,6.5-84.5,1.4c-10.3-5.1-42.2-16.2-52-15.2l-2.2,5.1l-17.6-1.9
		l4.6,5.7l-26.5,5.4l5.7,2.7l-27.9,21.9l7.9-0.8c0,0-24.4,43.1-28.4,65.3c-4.1,22.2-5.7,62.6,6.2,76.9c1.9,0.8,4.9-3.8,6-7.3
		c1.1-3.5,10-34.4,21.4-36.6s10.8-4.1,10.8-4.1s20-24.9,24.6-26.8c4.6-1.9,17.6-7.6,34.4-9.2c0,0,22.5-17.9,37.9-19.5
		c15.4-1.6,32.5,1.9,38.5,7.9c6,6,12.7,20.3,12.7,20.3l4.1,0.8c0,0,17.6-10.8,26.8-7.3c10.6,1.6,36.3,13.8,43.3,38.7
		c7,24.9,9.5,34.3,5.4,52.4c0,0,19,28.9,86.7,57.6c0,0,14.4,9.7,42,11.1C581,322.2,601,346,603.7,350
		C606.4,354.1,626.5,392.8,618.9,406.4z"/>
	<path class="st2" d="M165.8,457.8c0,0-13.4-141.2,13.4-171.5c18.8-26.4,28.5-42.2,55.2-46.9c26.7-4.7,49.5-5.1,49.5-5.1
		s20.6,63.5,59.6,92.1c-35.4,6.5-53.8,7.2-73.3,21.3c-19.5,14.1-11.6,36.8-10.5,38.6s12.6,20.6,61.7,21.3s92.8-4.3,92.8-4.3
		s-23.1,37.2-23.1,42.2c0,0-20.2,4.3-31.1,3.6c0,0-23.5-27.1-31.4-29.2s-88.8-4.3-100.7-1.8s-22.7,9.4-30.7,17.7
		s-14.1,18.8-14.1,18.8S170.1,460,165.8,457.8z"/>
	<path class="st2" d="M166.8,495c0,0-11.6,66.8,28.5,88.1c40.1,21.3,121.3-5.4,121.3-5.4s6.1-1.8,9-7.9c2.9-6.1,17-50.2,12.6-72.2
		c-4.3-22-27.8-21.7-27.8-21.7s-22-9-63.2-2.2S174.8,482.4,166.8,495z"/>
	<path class="st2" d="M331.8,597.2c0,0,38.6-7.2,26-62.8c0,0-7.9,18.5-7.2,22.6c0.7,4.1-8.7,21.1-15.9,26.5L331.8,597.2z"/>
	<path class="st2" d="M416.7,480.9c0,0,0.4,52.8,36.1,76.1c35.7,23.2,113.4,7.3,118.6,0.8c6.1-7.5,19.7-13.5,23.5-14.1
		c2.8-0.4,6.3-1.4,8.1-35.7c1.8-34.3-0.5-55.8-2.3-59.8c-1.8-4-15.2-10.3-29.8-10.3c-14.6,0-62.1,2.2-77.3,6.5s-57.4,9.7-70.8,20.9
		C416.7,473,415.7,469.5,416.7,480.9z"/>
	<path class="st2" d="M338,654.6c0,0-48.7,54.2-51.6,63.5s-4.7,34.7,14.8,49.1s36.1,23.8,33.9,88.1c0,0,52.4-13.7,75.1-15.2
		s59.6,2.5,77.6,13.4s25.6,17.7,25.6,17.7s15.5-10.5,37.2-32.5c0,0-2.2-79.4-3.6-94.6s11.9-32.1,11.9-32.1l6.5-14.1l-14.8,3.6
		c0,0-5.4,1.4-7.6-2.9s-10.2-19.5-32.7-35c-22.5-15.5-44.6-30-47.1-30s-2.9,5.4-22.7,6.1c0,0,1.4,30,1.1,37.2s-7.2,28.5-9.4,30
		s-71.8,7.9-71.8,7.9s-5.1-7.2-10.1-9.7c-5.1-2.5-12.6-15.5-12.6-20.6s0.2-15.5,1.5-19.1L338,654.6z"/>
</g>
<g id="Red">
	<path class="st3" d="M313.7,741.6c0,0-1.6-10.8,15.2-16.2c16.8-5.4,42.8-5.7,42.8-5.7s30.9-2.2,36.8-3c6-0.8,47.4-5.1,54.4-5.4
		c7-0.3,19.8-1.1,26.5,0c6.8,1.1,20.7-0.2,21.4,1.9c1.9,5.4-4.6,12.7-20.6,21.1c-16,8.4-38.5,22.2-42,25.2c-3.5,3-17.1,9.7-39.3,9.7
		c-22.2,0-39.5-7.3-48.2-11.1c-8.7-3.8-29.8-7.6-37.6-10C315.3,745.7,313.7,741.6,313.7,741.6z"/>
</g>
<g id="Purple">
</g>
<g id="Orange">
</g>
<g id="Dark_Blue">
</g>
</svg>
