<?xml version="1.0" encoding="utf-8"?>
<!-- Generator: Adobe Illustrator 22.0.1, SVG Export Plug-In . SVG Version: 6.00 Build 0)  -->
<svg version="1.1" xmlns="http://www.w3.org/2000/svg" xmlns:xlink="http://www.w3.org/1999/xlink" x="0px" y="0px"
	 viewBox="0 0 841.9 1190.6" style="enable-background:new 0 0 841.9 1190.6;" xml:space="preserve">
<style type="text/css">
	.st0{fill:#847C7C;}
	.st1{fill:#020304;}
	.st2{fill:#61C1C7;}
	.st3{fill:#E5201E;}
	.st4{fill:#58225E;}
	.st5{fill:none;}
	.st6{fill:#DB7531;}
	.st7{fill:#364496;}
</style>
<g id="Gray_x2F_Black">
</g>
<g id="Blue">
</g>
<g id="Red">
</g>
<g id="Purple">
</g>
<g id="Orange">
</g>
<g id="Dark_Blue">
	<path class="st7" d="M132.4,467.7l28.3-6.9c0,0-1.4-13.7-1.1-22s-1.4-19.9-1.6-22.4s0-9.4,0.2-18.2c0.2-8.8-0.2-19.7-0.7-33.9
		s-0.9-28.8,0.9-37.8s6.9-27.4,13.7-40.9c-0.9-2.3-10.8-28.5-10.8-28.5s-13.2,13.7-19.3,51.3c-4.3,22-8.7,46.4-9.6,47.1
		s-6,1.8-9,19.9c-3.1,18.1-4.7,42.8-2,58.5C124.1,449.5,129.1,463.6,132.4,467.7z"/>
	<path class="st7" d="M190.9,453.7c0,0,14.6-30,36.8-30.9c22.2-0.9,34.5-2.7,58.7-1.4c24.2,1.3,33.8-2,45.5,8.1
		c11.7,10.1,20.9,19.7,20.9,19.7s-21.1,1.1-26.2,2.5c0,0-37.4-5.6-60.7-3.8S192.3,453.1,190.9,453.7z"/>
	<path class="st7" d="M398.5,441.8c0,0,52.5-14.2,65.9-15.3c0,0.9,35.2-12.1,43.9-13.4c8.7-1.3,14.6-6.7,73.1-8.8
		c0,0-24.4-23.5-31.2-26.5c-6.9-3.1-14.4-6.1-31.2-0.7c-16.8,5.4-24.7,9.2-28,9.6s-27.8,1.4-36.1,3.4c-8.3,2-26.5,5.2-34.3,14.8
		C412.7,414.5,399.9,434.2,398.5,441.8z"/>
	<path class="st7" d="M175.5,276.2c0,0,19.1-28.9,35.7-35.9s13.4-8.7,45.9-11.4c32.5-2.7,63.2,0.5,87.4,3.2s73.8,13.7,73.8,13.7
		s6.9-4.9,3.2-20.4s-5.6-32.3-17.9-43S377,166.3,371,165.9c-6-0.4-22.6,10.3-24.2,10.5c-1.6,0.2-5.1-0.7-6-3.1
		c-0.9-2.3-3.1-17.9-14.6-22.9s-26.5-9.4-39.5-4.5c-13,4.9-24,15-28.3,17.2s-30.3,3.2-37,10.5c-6.7,7.2-21.1,25.6-21.8,26.9
		s-12.1-0.4-16.1,5.8s-15.7,34.1-16.6,40.8L175.5,276.2z"/>
</g>
</svg>
