<?xml version="1.0" encoding="utf-8"?>
<!-- Generator: Adobe Illustrator 22.0.1, SVG Export Plug-In . SVG Version: 6.00 Build 0)  -->
<svg version="1.1" id="Laag_1" xmlns="http://www.w3.org/2000/svg" xmlns:xlink="http://www.w3.org/1999/xlink" x="0px" y="0px"
	 viewBox="0 0 841.9 1190.6" style="enable-background:new 0 0 841.9 1190.6;" xml:space="preserve">
<style type="text/css">
	.st0{fill:none;}
	.st1{fill:#847C7C;}
	.st2{fill:#020304;}
</style>
<g id="Gray_x2F_Black">
	<path class="st0" d="M850,1198.1h-83.3c44.9-86.8,72-191.1,74.2-303.7c5.9,4.3,8.5,29.6,8.5,29.6L850,1198.1z"/>
	<path class="st1" d="M840.8,894.4c-2.2,112.6-29.3,216.9-74.2,303.7h-137l10.8-29.6c0,0,39.8-136.9,47.7-170.1
		c8-33.2,13-88.1,14.1-99.6c1.1-11.5-7.9-43.4-13.7-53.5c-5.8-10.1-56-40.1-56-40.1c10.1-1.9,20.9,2.9,20.9,2.9s30.4,16.6,39.4,21.3
		s28.2,16.3,37.2,24.6c9,8.4,32.1,14.5,55.6,24.6c23.5,10.1,46.9,14.1,53.8,15.2C840,893.9,840.4,894.1,840.8,894.4z"/>
	<path class="st0" d="M68.3,1199.6c-36.1-0.2-72.5-2.1-77-9c-9.2-14.1,2-66.6,2-66.6L-6,998.7l8.2-3.6
		C13.9,1069.8,36.7,1139,68.3,1199.6z"/>
	<path class="st1" d="M287.9,862.9c-7.7-0.1-21.1,8.2-26.5,12.5c-5.4,4.3-26.6,36.8-40.1,61.1c-13.5,24.3-34.1,76.5-46,106.8
		c-12,30.3-21.2,73.1-28.2,111s-4,43.7-4,43.7s-37.2,1.8-74.8,1.6C36.7,1139,13.9,1069.8,2.2,995.1l22-9.7
		c5.4-2.2,24.4-12.5,27.6-15.7c3.3-3.3,9.8-11.9,20.6-19.5c24.9-20.6,29.8-26.3,29.8-26.3s11.9-4.1,24.4-12.2
		c47.6-33.1,78.5-27.1,78.5-27.1l-22.7,17.9c0,0-18.4,10.8-16.8,13.5c1.6,2.7,5.4,2.2,22.4-8.1s89.7-82.9,89.7-82.9l13.4,11.9
		C286.9,843,287.9,862.9,287.9,862.9z"/>
	<path class="st2" d="M618.6,1201.1c-0.8-0.5,15.2-36,18.7-49s19.5-62.8,20.6-67.4s15.7-55.8,16.8-62.6c1.1-6.8,9.7-35.7,13-55.8
		c3.2-20,8.9-56.6,8.1-70.9c-0.8-14.4-6-33.6-6-33.6s-26.3,38.7-39,55.2s-41.2,44.4-48.2,51.5c-7,7-33.6,34.9-49,43.6
		c-15.4,8.7-56.6,25.2-85.8,29.2c-29.2,4.1-60.1,3.2-81.5,1.1c-21.4-2.2-56.1-11.6-74.5-22.5c-18.4-10.9-23.7-22.7-27.3-30.1
		c-3.6-7.3-9.5-25.5-7.4-49.6c2.2-24.1,4.1-45.8,6.8-54.4s5-17.6,2.7-16.8c0,0-23,6.5-33.8,25.7s-34.7,69.1-34.7,69.1
		s-21.7,48.2-23.6,52c-1.9,3.8-22.7,59.6-24.4,67.7s-13,66.1-14.6,72.8s-3.9,12-4.2,43.1L618.6,1201.1z"/>
</g>
<g id="Blue">
</g>
<g id="Red">
</g>
<g id="Purple">
</g>
<g id="Orange">
</g>
<g id="Dark_Blue">
</g>
</svg>
