<?xml version="1.0" encoding="utf-8"?>
<!-- Generator: Adobe Illustrator 22.0.1, SVG Export Plug-In . SVG Version: 6.00 Build 0)  -->
<svg version="1.1" xmlns="http://www.w3.org/2000/svg" xmlns:xlink="http://www.w3.org/1999/xlink" x="0px" y="0px"
	 viewBox="0 0 841.9 1190.6" style="enable-background:new 0 0 841.9 1190.6;" xml:space="preserve">
<style type="text/css">
	.st0{fill:#847C7C;}
	.st1{fill:#020304;}
	.st2{fill:#61C1C7;}
	.st3{fill:#E5201E;}
	.st4{fill:#58225E;}
	.st5{fill:none;}
	.st6{fill:#DB7531;}
	.st7{fill:#364496;}
</style>
<g id="Gray_x2F_Black">
</g>
<g id="Blue">
</g>
<g id="Red">
</g>
<g id="Purple">
</g>
<g id="Orange">
	<path class="st6" d="M284.6,969.6c0,0-3.9-66.1,7.5-91.5c1.6,6.2,11,37.9,3.2,62.6S285.8,969.1,284.6,969.6z"/>
	<path class="st6" d="M568,992.1c0,0,20-65.8,13.3-114c-8.4-41.7-15.8-52-15.8-52s46.4-60.7,50.7-83.4c0,0,3.2,54.2,5.4,58.2
		s8.1,13,12.2,14.6c4.1,1.6,26,13.8,31.7,18.4c5.7,4.6,21.4,18.1,20,22.5c0,0-25.2,39-51.5,69.3S586.3,977.8,568,992.1z"/>
	<path class="st6" d="M556.6,829.3c0,0,33.3-40.3,49.6-79.3c16.2-39,18.4-40.6,26.3-83.4c7.9-42.8,4.3-109.6,4.3-109.6
		s0.8-4.7,0.8-35.3s-2.4-49,1.4-58.5l-7.3-4.1c0,0-6,63.6-11.9,76.1c-6,12.5-8.7,32.2-47.7,43.1l10.8,38.2c0,0,7.6,35.2,2.4,50.1
		c-5.1,14.9-26.5,58.2-31.4,66.3c0,0-1.6,8.4,0,39C555.5,802.5,555.8,825,556.6,829.3z"/>
	<path class="st6" d="M330.5,604.6c0,0-12.2,35.5-7.3,39.8c4.9,4.3,16,0,16,0s6.8-4.3,14.9,0c8.1,4.3,16.8,7.3,21.1,6
		s23-11.7,23-11.7s9.5-5.5,16.5-5c7,0.5,13.5,3.2,23,2.3c9.5-0.8,17.3-1.6,19.8-4.3c2.4-2.7,6.5-4.1,3.8-10.3
		c-2.7-6.2-9.7-30.6-20.6-47.1s-26.8-43.6-34.1-51.2c-7.3-7.6-18.7-19.2-26.3-20c-7.3,1.9-17.4,9.2-19.9,18.1c0,0,7.2,28.7,5.3,37.9
		c-1.9,9.2,1.4,19-14.4,33.8C339.2,603.5,330.5,604.6,330.5,604.6z"/>
	<path class="st6" d="M567.8,560.1c0,0,16.2-9.7,26.3-13.9c10.1-4.2,10.2-37.2,10.2-37.2l1.5-52c0,0-2.1-15.3-14.2-17.4
		s-31.5-2.5-45.7-0.9c0,0,5.4,21.2,4.9,27.2c2.3,4.1,13.8,17.9,13.5,46.3C564.2,540.7,567.8,560.1,567.8,560.1z"/>
	<path class="st6" d="M591.5,406.4c0,0,20-1.6,23.8,2.2c0,0,1.1-26.5-7.9-41.4c-8.9-14.9-13.3-23.6-17.6-24.6
		c-3.8,1.6-26,7.6-45,7.6c0,0-12.2,11.9-21.7,13.8s-27.3-8.4-34.9-13.5s-28.4-23.8-28.4-23.8s-155.4,1.3-176.6,18.4
		c-12.2,6.2-21.7,16.2-21.7,23.8s-1.1,16.8,15.2,22.7c16.2,6,38.5,9.5,63.6,9.7c25.2,0.3,61-0.5,75.9-4.9c7.5-2.2,11.8-2.4,11.8-2.4
		s0.9-3,7.2-4.9c6.2-1.9,26.3-5.7,45.2-6.2c0,0,40.6-10.6,46.6-12.2c6-1.6,14.8-5.4,26.1,4.1C564.5,384.2,591.5,406.4,591.5,406.4z"
		/>
</g>
<g id="Dark_Blue">
</g>
</svg>
