<svg id="Capa_1" enable-background="new 0 0 512 512" height="512" viewBox="0 0 512 512" width="512" xmlns="http://www.w3.org/2000/svg"><g><path d="m436 105c0 52.8-39.18 96.62-90 103.92v138.08c0 24.81-20.19 45-45 45h-90c-24.81 0-45-20.19-45-45v-138.08c-50.82-7.3-90-51.12-90-103.92 0-57.9 47.1-105 105-105 28.54 0 55.43 11.54 75 31.59 19.57-20.05 46.46-31.59 75-31.59 57.9 0 105 47.1 105 105z" fill="#ffbfab"/><path d="m436 105c0 52.8-39.18 96.62-90 103.92v138.08c0 24.81-20.19 45-45 45h-45v-360.41c19.57-20.05 46.46-31.59 75-31.59 57.9 0 105 47.1 105 105z" fill="#ffa17a"/><path d="m346 407v15c0 44.52-32.49 81.59-75 88.74l-15-73.74-15 73.74c-42.51-7.15-75-44.22-75-88.74v-15c0-24.81 20.19-45 45-45h90c24.81 0 45 20.19 45 45z" fill="#ff8e8e"/><path d="m346 407v15c0 44.52-32.49 81.59-75 88.74l-15-73.74v-75h45c24.81 0 45 20.19 45 45z" fill="#ec5569"/><g><path d="m271 452v58.74c-4.88.83-9.89 1.26-15 1.26s-10.12-.43-15-1.26v-58.74c0-8.28 6.72-15 15-15s15 6.72 15 15z" fill="#ec5569"/></g><path d="m271 452v58.74c-4.88.83-9.89 1.26-15 1.26v-75c8.28 0 15 6.72 15 15z" fill="#cc2e43"/></g></svg>