<?xml version="1.0" encoding="utf-8"?>
<!-- Generator: Adobe Illustrator 22.0.1, SVG Export Plug-In . SVG Version: 6.00 Build 0)  -->
<svg version="1.1" xmlns="http://www.w3.org/2000/svg" xmlns:xlink="http://www.w3.org/1999/xlink" x="0px" y="0px"
	 viewBox="0 0 841.9 1190.6" style="enable-background:new 0 0 841.9 1190.6;" xml:space="preserve">
<style type="text/css">
	.st0{fill:#847C7C;}
	.st1{fill:#020304;}
	.st2{fill:#61C1C7;}
	.st3{fill:#E5201E;}
	.st4{fill:#58225E;}
	.st5{fill:none;}
	.st6{fill:#DB7531;}
	.st7{fill:#364496;}
</style>
<g id="Gray_x2F_Black">
</g>
<g id="Blue">
</g>
<g id="Red">
</g>
<g id="Purple">
	<path class="st4" d="M284.6,969.6c0,0,26.2-35.5,20.5-63.6c-5.7-28.2-12.1-42.5-9.8-66.3c8.5,7.3,43.1,40.9,79.4,59.3
		c30.3,10.6,75,3.2,80.2,0.5c8.1-1.9,39-8.7,45.8-11.9c6.8-3.2,21.7-11.6,41.2-31.1c16-15.4,19.5-22.5,19.5-22.5s24.6,39,13,99.4
		c-11.6,60.4-16.5,68.5-16.5,68.5s-46.3,30.1-129.6,36.6c-83.3,6.5-130.4-36.8-130.4-36.8S283.6,982.9,284.6,969.6z"/>
	<path class="st4" d="M337.5,864c0,0,28.2,25.7,46,32c17.9,6.2,69.1,0,69.1,0s44.1-9.2,55-20.6c0,0-14.6-20.6-48.7-25.7
		c-34.1-5.1-57.4-1.4-63.1,0C390.1,851,349.7,855.3,337.5,864z"/>
	<path class="st4" d="M328.9,858.3c0,0,4.3-54.4-20.9-78.8c-25.2-24.4-32-30.6-29.8-48.5s5.1-24.9,11.6-30.6s39.3-46.3,39.3-46.3
		s-7.3-0.5-8.9-3c-1.6-2.4-4.9-11.7-3.5-17.5c1.4-5.8,3-12,6.5-20.4c3.5-8.4,1.6-18.4,1.6-18.4s-25.5,10-41.7,12.7
		c-16.2,2.7-29,8.9-63.4,4.6s-31.7-10-31.7-10s1.1,17.1,6,29.8c4.9,12.7,9.5,30.9,17.6,46c8.1,15.2,17.9,43.1,19.8,51.5
		c1.9,8.4,9.2,38.2,23.8,57.7c14.6,19.5,26.8,33.6,53.3,54.7C319.4,851.8,325.3,856.7,328.9,858.3z"/>
	<path class="st4" d="M352.7,763.8c0,0,9.2,29.2,19.8,38.5c10.6,9.2,16.8,12.7,34.4,16.5c17.6,3.8,27.6,4.9,36.6,1.9
		c8.9-3,19.5-10.3,22.7-13.3s9.2-9.5,11.9-16.5c2.7-7,6.8-13.8,7.6-27.1c0.8-13.3,0-17.3,0-17.3s-13.3,8.9-24.4,14.4
		c-11.1,5.4-22,12.5-30.4,13.5c-8.4,1.1-18.9,2.7-24.6,1.6c-5.7-1.1-29-5.1-33.8-6.8C367.6,767.6,360.5,765.4,352.7,763.8z"/>
	<path class="st4" d="M346.1,650.9c0,0-1,16.5-2.4,23.6c-1.4,7-1.1,19,7.3,24.6s12.5,10,13,13.5l60.9-4.4c0,0,7.3-14.2,8.7-23.2
		c1.4-8.9,4.6-26.3,1.6-34.1c-3-7.9-3-7.9-3-7.9s-15.4-5.7-19.5-4.1c-4.1,1.6-18.7,8.9-19.5,9.2c-0.8,0.3-8.9,6-13,6.8
		c-4.1,0.8-5.7,3-14.4,0.8s-11.9-5.4-11.9-5.4S348.5,648.2,346.1,650.9z"/>
	<path class="st4" d="M451.8,581.3c0,1.1,13,25.2,14.1,33.6s0.8,11.9,0,13.3c0,0,46.6,25.7,55.8,35.5c9.2,9.7,26,30.1,26.3,32.5
		c0,1.4,8.1,1.4,14.4-2.2c6.2-3.5,10.3-3,15.4-24.6c5.1-21.7,1.9-45.2,0-52.5c-1.9-7.3-9.9-35.7-12.3-38.5c0,0-21.3,2.7-34.6,4.1
		c-13.3,1.4-22.2,3.2-35.2,2.7C482.7,584.5,451.8,581.3,451.8,581.3z"/>
	<path class="st4" d="M548.7,344.1c0,0,5.7-15.2,5.1-17.1c-0.5-1.9,19,1.4,26.5,10.3C580.4,337.3,584.2,343.8,548.7,344.1z"/>
	<path class="st4" d="M546,326.5c0,0,0.5,16.5-18.4,29.5c-19,13-56.9-27.6-56.9-27.6s-1.1-4.9-20.3-5.4c-19.2-0.5-77.7,0.6-96.1,3.5
		c0,0-24.9-14.4-42.5-45.8S291,237.4,291,237.4s-2.4-4.2,5.4-3.1c7.9,1.2,41.7,3.1,41.7,3.1s47.1,6,55.2,7.9
		c8.1,1.9,15.7-1.9,33.6,18.1c17.9,20,68.8,45.8,68.8,45.8S520.3,320,546,326.5z"/>
	<path class="st4" d="M470.5,139.4c0.8,4.3,31.4,65.5,82.9,89.9l3.5-1.9c0,0,14.6,11.6,23.6,12.2l-6-5.2c0,0,11.9,3.6,17.3,3.6
		l-7.3-6c0,0,1.6,2.8,11.4,2.3c0,0-10.6-4-10.3-6.1c0,0,8.7,4.9,11.9,3.2c3.2-1.6,4.3-4.1,3.2-15.2c-1.1-11.1-36.8-43.9-36.8-43.9
		s-29-23.6-65.3-33C462.4,129.9,470.5,139.4,470.5,139.4z"/>
	<path class="st5" d="M224.6,479.2c0,0,1.6,26.8,3.5,37.4c0,0,12.7-18.7,35.7-23.3s44.4-6.2,54.4-2.7s19.5,12.5,19.5,12.5
		s-0.2-14.4-8.2-20.6c-8-6.2-24.7-10.3-41.3-9.7C271.7,473.3,244.7,471.6,224.6,479.2z"/>
	<path class="st5" d="M238.4,538.2c0,0,11.6,25.2,41.4,25.5c29.8,0.3,53.6-31.1,53.6-31.1s3.8-7.9,3-14.6c0,0-14.1,13.1-23,16.4
		c-8.9,3.3-32.2,10.1-44.7,8.5c-12.5-1.6-29.2-6.1-31.7-8.5C234.6,532,238.4,538.2,238.4,538.2z"/>
	<path class="st5" d="M538.2,506.8c0,0-14.4,21.7-37.9,21.1c-23.6-0.5-37.6-2.4-53.1-16.8c-15.4-14.4-29.7-40-29.7-40
		s2.6-10.3,47-20.3s77.7-8.9,77.7-8.9s3,24.6,3.8,27.1c0,0-26.8-6.5-33-7c-6.2-0.5-22.7,0.3-27.6,2.7c-4.9,2.4-23.3,9.7-26.3,13
		c-3,3.2-6,7.9-5.7,11c0.3,3.1,0.5,13.2,3.8,14.5s22.7,8.4,36.3,8.9C507,512.5,528.2,511.7,538.2,506.8z"/>
	<path class="st4" d="M643,618.1c0,0,19.8,3.5,32.5-33c4.9-25,3.2-35.7,1.9-46s-0.8-19.5,3-29.2s10.8-27.9,6-47.1
		c-4.9-19.2-8.7-23.6-17.6-23c-8.9,0.5-24.9,26.4-25.7,36.2C642.2,485.7,644.6,590.8,643,618.1z"/>
</g>
<g id="Orange">
</g>
<g id="Dark_Blue">
</g>
</svg>
